<svg width="512" height="512" viewBox="0 0 512 512" fill="none" xmlns="http://www.w3.org/2000/svg">
<rect width="512" height="512" fill="#D1FF82"/>
<path d="M227.138 109.675C219.215 109.675 168.521 109.682 162.18 112.846C155.838 116.01 139.203 136.606 139.203 136.606C139.203 136.606 164.56 192.858 157.428 230.879C150.296 268.905 73.4511 320.398 67.9021 349.707C62.3531 379.017 102.63 400.766 102.63 400.766C102.63 400.766 139.201 409.911 193.862 409.911C406.174 417.833 425.761 339.809 436.171 309.502C446.58 279.195 447.369 271.267 438.657 213.443C429.945 155.62 376.864 103.332 346.758 103.332C316.656 103.333 235.056 109.674 227.133 109.674L227.138 109.675Z" fill="black"/>
<path d="M104.223 301.167C104.223 301.167 154.254 260.024 158.216 226.751C162.177 193.478 156.635 183.175 156.635 183.175L239.81 156.245L364.977 157.036L416.467 165.747L425.18 171.299C425.18 171.299 440.227 203.782 441.814 238.634C443.405 273.49 436.168 308.546 436.168 308.546L241.399 340.826L104.224 301.168L104.223 301.167Z" fill="#40261C"/>
<path d="M115.442 298.834L121.774 297.254L128.906 290.912H136.038L145.544 278.239L155.047 281.41L161.389 276.654H174.065L180.397 270.317H191.49L198.622 269.523L204.957 270.317L212.089 279.029L199.413 315.473L190.7 313.892L178.024 320.223L142.147 333.94L125.735 313.892L108.311 304.379L115.442 298.834Z" fill="white"/>
<path d="M201.874 336.713C201.874 336.713 203.16 250.909 269.676 224.566C336.193 198.224 364.474 224.56 373.785 227.458C383.097 230.355 397.244 229.379 412.345 233.242C423.665 236.143 429.109 244.358 429.109 244.358L440.495 296.744L431.82 317.546" fill="#C3756E"/>
<path d="M426.181 310.155L433.252 305.654C433.252 305.654 442.241 328.795 403.042 362.213C363.843 395.63 294.226 407.541 198.679 405.91C181.325 405.268 137.628 413.626 99.7136 396.917C61.7914 380.205 66.9379 346.139 66.9379 346.139L87.5637 323.2L197.283 307.828L210.751 330.801L307.929 347.429L426.178 310.155H426.181Z" fill="#8C5E5D"/>
<path d="M132.507 314.616L150.702 307.143L157.084 297.776L175.401 297.354L182.634 291.035L196.128 296.087L210.109 291.457L201.868 316.396L190.826 316.092L175.887 322.622L163.473 320.303L142.624 331.04L132.507 314.616Z" fill="#C1C9D4"/>
<path d="M209.142 310.31C208.548 279.455 235.651 248.615 220.229 266.931C204.807 285.246 200.949 335.38 200.949 335.38L222.156 333.931C222.156 333.931 209.737 341.171 209.142 310.313V310.31Z" fill="#A6655F"/>
<path d="M248.902 236.993C248.902 236.993 281.674 216.749 323.123 219.001C364.571 221.252 363.518 240.928 363.518 240.928C363.518 240.928 371.706 235.403 384.72 233.475C397.733 231.546 396.284 231.291 396.284 231.291L373.284 228.849C373.284 228.849 355.574 214.82 320.874 213.858C286.166 212.892 248.899 236.993 248.899 236.993H248.902Z" fill="#A6655F"/>
<path d="M375.218 261.649C374.104 259.427 366.492 261.649 360.785 267.038C355.065 272.442 355.858 277.041 357.763 279.746C359.671 282.441 365.378 281.809 368.242 279.104C371.092 276.41 368.88 272.442 369.356 270.219C369.828 267.998 374.904 263.871 374.904 263.871C374.904 263.871 376.336 263.871 375.218 261.649Z" fill="#E7C8C7"/>
<path d="M390.488 249.077C387.098 252.332 389.944 256.128 393.74 256.534C397.535 256.942 399.294 255.179 404.319 255.315C409.336 255.449 410.41 257.891 412.852 257.756C415.301 257.617 416.523 258.161 417.468 255.449C418.421 252.738 416.658 249.891 411.1 250.3C405.535 250.705 402.556 251.383 399.44 250.705C396.324 250.027 393.881 245.819 390.488 249.077Z" fill="#E7C8C7"/>
<path d="M142.372 134.852L155.835 186.342L166.141 191.094L182.776 180.797L200.201 186.342L229.512 175.256L246.944 181.588L286.548 178.421L302.393 172.876L316.656 175.256L339.531 186.832L371.321 172.876L393.5 173.666L410.926 176.837L419.638 172.085H428.354C428.354 172.085 391.117 107.121 334.877 101.58C278.632 96.0347 227.133 108.712 227.133 108.712C227.133 108.712 172.471 105.541 159.797 114.253C147.124 122.966 142.369 134.852 142.369 134.852H142.372Z" fill="black"/>
<path d="M141.178 136.315L157.083 182.105L167.207 186.445L182.632 177.286L189.379 175.841L200.948 182.588L203.838 181.142L217.815 179.214L227.456 172.947L248.184 178.249L265.534 171.501L293.454 173.737L315.66 171.984L339.528 183.218L376.34 166.807L377.201 156.581L378.902 169.369L400.213 175.762L424.591 169.572C424.591 169.572 383.622 112.216 340.722 106.432C297.825 100.647 238.055 109.805 238.055 109.805L162.378 119.926L141.174 136.315H141.178Z" fill="white"/>
<path d="M140.632 134.649L164.398 117.393L245.672 111.254L347.26 106.662" fill="white"/>
<path d="M431.65 244.477C431.22 243.098 427.929 234.337 412.647 230.427C404.551 228.356 396.758 227.648 389.88 227.023C383.719 226.464 378.399 225.981 374.203 224.675C372.976 224.293 371.162 223.328 368.866 222.105C355.973 215.242 325.778 199.168 268.523 221.844C240.669 232.875 219.851 256.17 208.318 289.212C199.655 314.031 199.242 335.257 199.229 336.148L203.948 336.219C203.962 335.376 206.013 251.676 270.262 226.231C325.487 204.359 353.289 219.159 366.649 226.271C369.164 227.61 371.151 228.668 372.801 229.181C375.343 229.972 378.153 230.478 381.215 230.873C361.109 236.644 349.146 251.442 348.985 251.645C348.985 251.645 370.206 231.916 398.674 232.673C402.81 233.186 407.119 233.884 411.478 234.999C424.838 238.417 427.053 245.566 427.14 245.869L427.174 245.984C427.183 246.017 427.227 246.127 427.227 246.127C429.626 252.07 434.725 280.873 437.086 295.274L441.744 294.51C441.463 292.796 434.858 252.646 431.65 244.477Z" fill="#82524B"/>
<path d="M93.6306 374.1C89.7739 372.173 76.2769 343.894 76.2769 343.894L92.3441 300.84L102.63 298.269L111.623 301.478L123.837 302.127L129.621 307.262L143.119 329.117C143.119 329.117 157.896 320.111 163.036 318.831C168.182 317.552 200.31 328.469 200.31 328.469L224.093 320.118L237.591 318.19L265.862 327.831L299.286 311.768H316.637L330.772 318.19L357.763 307.262L368.692 303.406L382.189 316.903L387.322 312.406L398.891 311.768L414.965 310.477L418.822 305.335L427.169 304.696L431.025 313.696C431.025 313.696 428.684 323.444 423.692 333.681C417.501 346.377 408.318 360.179 407.252 361.246C405.325 363.174 401.468 360.608 401.468 360.608C401.468 360.608 396.966 352.253 395.035 352.896C393.104 353.538 370.62 377.321 370.62 377.321L355.836 381.174L340.41 372.816L332.063 362.534L302.494 383.099C302.494 383.099 288.997 388.884 284.502 386.956C280.006 385.028 275.499 381.813 275.499 381.813L269.717 368.958L233.734 394.669C233.734 394.669 229.871 397.246 225.373 396.597C220.875 395.948 213.804 388.236 213.804 388.236L200.309 371.535L196.453 359.317L184.246 368.958L162.992 385.988C162.992 385.988 148.097 391.651 143.592 389.722C139.087 387.794 130.338 376.225 130.338 376.225L124.479 360.607L105.197 370.245C105.197 370.244 97.4839 376.029 93.6306 374.1Z" fill="black"/>
<path d="M174.277 116.573L183.269 134.143C183.269 134.143 186.643 121.477 195.159 117.603C203.68 113.727 210.579 113.22 215.083 115.55C219.588 117.87 220.227 128.969 220.227 128.969L220.804 126.95C220.804 126.95 222.795 119.157 225.369 116.573C227.945 113.997 230.19 114.246 238.863 113.476C247.541 112.703 256.53 118.643 256.53 118.643C256.53 118.643 257.82 113.486 261.036 112.446C264.251 111.407 295.575 106.51 298.634 107.8C301.69 109.079 310.842 121.746 310.842 121.746C310.842 121.746 310.517 116.843 311.804 113.997C313.09 111.15 323.697 106.753 323.697 106.753L356.791 109.857C356.791 109.857 369.637 120.7 372.534 125.873C375.439 131.04 375.107 144.99 375.107 144.99L384.441 125.451L396.638 135.987V133.096L357.116 104.176L277.427 105.21L211.233 112.852L174.277 116.573Z" fill="#8C5E5D"/>
<path d="M174.22 116.606L183.212 134.176L183.291 134.332L183.337 134.163C183.37 134.036 186.8 121.483 195.189 117.667C199.353 115.773 203.204 114.647 206.636 114.319C209.951 114.003 212.784 114.437 215.054 115.613C219.473 117.888 220.154 128.866 220.161 128.976L220.293 128.99L220.87 126.971C220.89 126.891 222.887 119.164 225.419 116.623C227.583 114.46 229.53 114.304 235.311 113.842C236.356 113.759 237.541 113.664 238.87 113.546C247.425 112.784 256.405 118.643 256.495 118.702L256.574 118.755L256.597 118.662C256.611 118.611 257.915 113.53 261.058 112.513C263.793 111.628 295.521 106.562 298.609 107.864C301.612 109.122 310.697 121.661 310.788 121.788L310.925 121.978L310.91 121.744C310.906 121.695 310.601 116.824 311.866 114.026C313.13 111.236 323.618 106.861 323.724 106.817L323.691 106.822L356.785 109.925L356.748 109.91C356.876 110.018 369.617 120.804 372.475 125.908C375.338 131 375.044 144.851 375.04 144.99L375.168 145.02L384.501 125.482L384.397 125.504L396.595 136.04L396.706 136.136V135.989V133.098V133.063L396.678 133.043L357.155 104.124L357.138 104.11H357.115L277.428 105.143H277.424L277.421 105.144L211.227 112.786L174.271 116.507L174.173 116.517L174.22 116.606ZM211.244 112.92L277.437 105.279H277.43L357.118 104.246L357.076 104.232L396.6 133.152L396.572 133.097V135.988L396.683 135.937L384.486 125.401L384.418 125.344L384.381 125.424L375.047 144.962L375.174 144.993C375.176 144.958 375.254 141.455 374.977 137.366C374.721 133.587 374.099 128.522 372.593 125.842C369.723 120.717 356.963 109.915 356.835 109.807L356.819 109.793L356.799 109.791L323.705 106.687L323.688 106.686L323.673 106.692C323.239 106.872 313.03 111.132 311.744 113.97C310.466 116.799 310.773 121.703 310.776 121.752L310.898 121.709C310.524 121.191 301.7 109.012 298.663 107.74C296.801 106.955 284.911 108.489 279.886 109.184C271.524 110.342 262.707 111.838 261.017 112.384C259.335 112.929 258.186 114.6 257.52 115.906C256.8 117.316 256.47 118.616 256.467 118.629L256.569 118.589C256.547 118.574 254.279 117.085 250.979 115.71C247.931 114.44 243.355 113.011 238.858 113.411C237.529 113.529 236.344 113.624 235.3 113.707C229.482 114.172 227.523 114.328 225.323 116.528C222.766 119.094 220.759 126.858 220.74 126.936L220.163 128.954L220.295 128.968C220.293 128.94 220.127 126.152 219.411 123.117C218.748 120.307 217.464 116.703 215.115 115.493C212.821 114.306 209.963 113.866 206.622 114.185C203.175 114.514 199.309 115.644 195.133 117.544C193.181 118.432 191.339 119.857 189.659 121.78C188.316 123.317 187.072 125.173 185.962 127.297C184.072 130.913 183.214 134.097 183.205 134.129L183.331 134.115L174.338 116.545L174.285 116.643L211.244 112.92Z" fill="black"/>
<path d="M227.138 105.34C187.725 105.34 165.363 106.526 160.675 108.866C153.874 112.256 138.33 131.357 136.581 133.523L135.278 135.137L136.13 137.027C136.379 137.58 160.967 192.764 154.115 229.298C150.504 248.548 126.64 272.912 105.585 294.407C85.9334 314.469 67.3715 333.419 64.5909 348.118C58.6596 379.49 99.2962 401.837 101.029 402.773L101.402 402.975L101.813 403.077C102.183 403.17 139.417 412.319 193.861 412.319L193.735 412.316C282.904 415.646 348.777 404.072 389.522 377.92C423.764 355.941 432.92 328.736 438.391 312.48L439.354 309.638C449.896 278.946 450.828 270.67 441.985 211.98C437.943 185.158 423.821 156.552 403.239 133.498C384.242 112.219 362.598 99 346.752 99C326.748 99 283.872 101.802 255.5 103.656C241.09 104.598 229.707 105.342 227.131 105.342L227.138 105.34ZM346.762 105.74C374.04 105.74 426.72 155.864 435.324 212.986C443.992 270.515 443.202 277.695 432.983 307.447L432.007 310.329C421.65 341.103 397.394 413.171 193.992 405.579L193.93 405.577H193.866C140.31 405.577 103.814 396.627 103.45 396.536L104.236 396.84C103.857 396.635 66.203 375.9 71.2187 349.372C73.6197 336.679 91.4878 318.437 110.404 299.125C133.192 275.86 156.756 251.803 160.744 230.541C167.988 191.917 143.332 136.592 142.279 134.259L141.829 137.762C148.083 130.019 159.547 116.965 163.686 114.902C166.306 113.602 184.495 112.085 227.14 112.085C229.936 112.085 240.848 111.372 255.949 110.385C284.234 108.536 326.974 105.743 346.763 105.743L346.762 105.74Z" fill="black"/>
<path d="M94.588 303.096L79.0069 341.97L84.3084 349.041L89.9343 364.622L95.5535 371.852L118.854 362.056L124.797 357.392C124.797 357.392 124.108 355.91 125.155 353.333C126.203 350.755 132.831 341.004 132.831 341.004C132.831 341.004 127.445 349.72 126.965 352.972C126.482 356.227 125.76 362.734 136.363 380.207C151.427 403.943 185.284 364.781 185.284 364.781L196.772 357.392L204.809 372.818L223.125 391.458L238.223 388.564L263.286 370.248L267.143 352.898L265.863 345.51L269.072 356.43L270.683 365.105L275.177 367.358L276.785 372.818L278.71 379.565L287.388 382.78L330.126 360.936L333.658 358.042L343.299 369.61L352.622 375.395L368.048 374.747L389.573 351.612L387.641 337.152L396.644 348.404L403.392 356.114L426.203 319.161L429.096 311.448L425.24 307.268L415.923 311.124L388.932 314.339L383.471 318.837L384.751 329.765L369.528 308.271C369.528 308.271 337.552 317.595 334.624 321.728C331.693 325.861 338.163 344.225 338.163 344.225L328.681 322.609L312.776 315.305L299.278 315.943L271.646 330.088L270.997 335.549L263.612 329.765L236.621 321.409L211.233 327.512L202.24 333.621L200.954 343.259L197.736 332.331L189.385 327.513L163.68 322.376C163.68 322.376 154.691 326.068 151.149 327.837C147.61 329.607 143.919 331.7 142.149 333.946C140.38 336.188 141.184 336.837 141.184 336.837L130.425 316.11L119.822 304.858L110.818 305.824L104.227 301.171L94.588 303.096Z" fill="white"/>
<path d="M393.022 343.692L403.385 356.224L426.196 319.155L429.09 311.443L425.234 307.262C425.234 307.262 414.833 314.651 407.241 323.326C399.65 332.001 393.022 343.692 393.022 343.692Z" fill="#C1C9D4"/>
<path d="M377.116 365.025L389.571 351.611L387.723 337.55L384.35 329.115L374.591 315.256C374.591 315.256 368.803 330.682 370.13 341.646C371.457 352.611 377.116 365.025 377.116 365.025Z" fill="#C1C9D4"/>
<path d="M332.293 330.922C332.293 330.922 330.608 325.741 328.68 326.224C324.344 327.308 321.933 360.925 321.933 360.925L322.896 364.663L330.368 360.925L333.62 358.156L334.461 347.432L332.293 330.922Z" fill="#C1C9D4"/>
<path d="M258.422 373.696C258.422 373.696 261.86 333.176 265.561 333.616C269.269 334.051 267.138 352.772 267.138 352.772L263.282 370.126L258.422 373.696Z" fill="#C1C9D4"/>
<path d="M266.014 346.099L267.139 352.893L263.282 370.244L253.726 377.308L254.331 378.152L271.438 367.066L273.369 367.911L274.211 367.066L270.475 365.381L269.067 356.426L266.014 346.099Z" fill="black"/>
<path d="M192.596 360.123L196.77 357.388L200.95 343.252L199.661 338.592C199.661 338.592 199.343 336.664 197.898 337.313C196.452 337.961 192.596 360.123 192.596 360.123Z" fill="#C1C9D4"/>
<path d="M118.375 362.422L124.315 357.763L140.281 336.502C140.281 336.502 135.585 337.819 128.081 344.289C120.577 350.759 118.375 362.422 118.375 362.422Z" fill="#C1C9D4"/>
<path d="M114.07 364.179L114.191 364.901L124.43 360.082L125.757 361.406L127.324 360.923C127.324 360.923 126.72 359.36 126.72 354.537C126.72 349.714 132.143 342.128 132.143 342.128C132.143 342.128 124.913 353.453 124.673 354.898C124.434 356.343 124.795 357.39 124.795 357.39L118.851 362.054L114.07 364.179Z" fill="black"/>
</svg>
